<svg xmlns="http://www.w3.org/2000/svg" xmlns:xlink="http://www.w3.org/1999/xlink" width="1280" zoomAndPan="magnify" viewBox="0 0 960 959.999988" height="1280" preserveAspectRatio="xMidYMid meet" version="1.0"><path fill="#ffffff" d="M 569.773438 18.632812 C 569.15625 20.644531 569.242188 20.5625 568.460938 19.855469 C 567.34375 18.84375 566.921875 19.054688 566.179688 21 C 565.472656 22.847656 564.84375 23.214844 564.042969 22.253906 C 563.792969 21.949219 562.84375 21.605469 561.9375 21.480469 C 559.820312 21.199219 558.175781 22.324219 557.519531 24.503906 C 556.582031 27.640625 549.226562 31.875 544.136719 32.210938 C 542.019531 32.351562 541.46875 32.234375 540.21875 31.386719 C 539.417969 30.84375 538.273438 30.398438 537.671875 30.398438 C 536.152344 30.398438 535.074219 29.535156 534.214844 27.628906 C 533.507812 26.0625 532.710938 25.570312 532.207031 26.386719 C 532.078125 26.597656 532.335938 27.492188 532.785156 28.371094 C 533.234375 29.25 533.601562 30.332031 533.601562 30.773438 C 533.601562 31.941406 531.632812 32.796875 528.921875 32.808594 C 523.386719 32.828125 513.023438 35.359375 511 37.1875 C 510.558594 37.585938 509.457031 38.28125 508.550781 38.738281 C 507.640625 39.191406 506.789062 39.851562 506.65625 40.203125 C 506.519531 40.554688 505.460938 41.261719 504.304688 41.777344 C 503.148438 42.292969 501.507812 43.269531 500.65625 43.945312 C 499.808594 44.625 498.460938 45.285156 497.65625 45.410156 C 495.023438 45.828125 492.027344 46.855469 490.585938 47.835938 C 489.804688 48.367188 488.832031 48.800781 488.425781 48.800781 C 488.023438 48.800781 486.5625 49.574219 485.179688 50.519531 C 483.152344 51.914062 482.417969 52.734375 481.335938 54.808594 C 480.597656 56.222656 479.207031 58.191406 478.242188 59.1875 C 477.28125 60.183594 476.269531 61.449219 476 62 C 475.164062 63.6875 471.488281 69.199219 471.191406 69.199219 C 471.042969 69.199219 469.78125 70.503906 468.398438 72.101562 C 463.636719 77.574219 459.398438 82.203125 456.757812 84.800781 C 455.304688 86.230469 454 87.761719 453.859375 88.199219 C 453.71875 88.640625 452.875 89.808594 451.984375 90.800781 C 447.089844 96.238281 443.445312 103.863281 440.515625 114.800781 C 438.234375 123.304688 437.8125 140.808594 439.648438 150.625 C 440.234375 153.769531 442.152344 157.378906 445 160.703125 C 447.328125 163.421875 447.601562 163.921875 447.601562 165.460938 C 447.601562 166.410156 447.304688 167.925781 446.941406 168.832031 C 446.417969 170.136719 445.925781 170.632812 444.5625 171.214844 C 442.816406 171.964844 441.601562 173.582031 441.601562 175.160156 C 441.601562 175.839844 441.910156 175.976562 443.699219 176.078125 C 445.621094 176.191406 445.8125 176.289062 445.917969 177.226562 C 446.011719 178.007812 445.789062 178.367188 445 178.726562 C 443.523438 179.402344 442.777344 179.316406 441.765625 178.367188 C 440.527344 177.203125 439.917969 177.585938 434.398438 182.992188 C 431.871094 185.472656 427.820312 189.078125 425.398438 191.011719 C 422.980469 192.941406 420.371094 195.085938 419.601562 195.769531 C 418.832031 196.457031 416.878906 197.902344 415.261719 198.988281 C 411.972656 201.191406 409.96875 203.058594 405.644531 207.933594 L 402.6875 211.265625 L 397.644531 210.992188 C 393.941406 210.789062 392.015625 210.859375 390.398438 211.257812 C 387.949219 211.859375 385.300781 211.871094 382 211.28125 C 380.722656 211.054688 379.640625 211.039062 379.421875 211.246094 C 379.191406 211.460938 379.351562 211.601562 379.832031 211.601562 C 380.265625 211.601562 380.976562 211.84375 381.410156 212.144531 C 381.84375 212.445312 383.054688 212.816406 384.097656 212.96875 C 385.925781 213.238281 386.050781 213.34375 387.605469 215.964844 C 388.492188 217.457031 389.664062 219.097656 390.210938 219.609375 C 391.210938 220.550781 391.480469 221.199219 390.867188 221.199219 C 390.683594 221.199219 389.050781 220.300781 387.238281 219.199219 C 385.429688 218.101562 383.792969 217.199219 383.605469 217.199219 C 383.417969 217.199219 382.753906 216.941406 382.132812 216.628906 C 380.363281 215.734375 374.117188 214.355469 370.714844 214.109375 C 367.882812 213.90625 367.449219 213.980469 365.371094 215.03125 C 361.339844 217.070312 358.707031 221.265625 355.472656 230.800781 C 353.59375 236.34375 353.136719 238.363281 352.355469 244.601562 C 351.621094 250.453125 351.082031 251.902344 348.601562 254.738281 C 345.46875 258.316406 344.796875 259.832031 344.34375 264.351562 C 343.921875 268.605469 344.554688 291.089844 345.253906 296.601562 C 345.476562 298.359375 345.761719 303.851562 345.882812 308.800781 C 346.128906 318.808594 345.855469 320.808594 343.605469 325.425781 C 342.507812 327.679688 339.851562 331.4375 337.433594 334.164062 C 336.316406 335.417969 336.167969 336.007812 336.808594 336.648438 C 337.085938 336.925781 336.894531 337.230469 336.207031 337.59375 C 335.652344 337.890625 335.199219 338.261719 335.199219 338.414062 C 335.199219 339.167969 332.933594 340.789062 330.777344 341.574219 C 324.820312 343.746094 317.148438 348.632812 314.839844 351.722656 C 310.984375 356.878906 308.636719 363.363281 305.828125 376.601562 C 304.628906 382.242188 302.792969 393.660156 302.796875 395.445312 C 302.800781 396.132812 302.449219 397.136719 302.023438 397.679688 C 301.597656 398.222656 300.933594 399.460938 300.554688 400.433594 C 300.171875 401.40625 299.070312 403.339844 298.105469 404.734375 C 296.03125 407.730469 293.160156 413.382812 292.28125 416.199219 C 291.9375 417.300781 291.449219 419.496094 291.195312 421.078125 C 290.941406 422.675781 290.464844 424.183594 290.121094 424.464844 C 289.25 425.191406 288.835938 426.492188 289.238281 427.261719 C 289.476562 427.710938 289.402344 427.988281 289.015625 428.140625 C 288.699219 428.261719 288.136719 428.953125 287.761719 429.679688 C 287.386719 430.40625 286.027344 432.015625 284.738281 433.257812 C 282.796875 435.132812 282.398438 435.738281 282.398438 436.859375 C 282.398438 437.835938 282.167969 438.320312 281.570312 438.605469 C 280.214844 439.25 276.015625 449.007812 276.003906 451.539062 C 276.003906 452.054688 275.742188 453.046875 275.425781 453.738281 C 275.113281 454.433594 274.785156 455.359375 274.703125 455.800781 C 274.621094 456.238281 274.359375 456.5625 274.121094 456.515625 C 273.71875 456.433594 272 459.859375 272 460.734375 C 272 460.945312 271.351562 462.082031 270.558594 463.261719 C 269.765625 464.4375 268.679688 466.261719 268.144531 467.3125 C 267.609375 468.367188 266.578125 470.164062 265.851562 471.3125 C 263.953125 474.3125 261.515625 479.019531 260.421875 481.800781 C 259.902344 483.121094 258.890625 485.191406 258.171875 486.398438 C 257.453125 487.609375 256.390625 489.859375 255.8125 491.398438 C 255.234375 492.941406 254.347656 495.101562 253.839844 496.199219 C 249.808594 504.949219 248.273438 511.039062 245.175781 530.519531 C 244.21875 536.554688 245.15625 552.449219 247.167969 564.199219 C 248.070312 569.46875 248.640625 573.980469 249.214844 580.398438 C 249.421875 582.710938 250.035156 586.667969 250.582031 589.199219 C 251.128906 591.730469 252.050781 596.320312 252.636719 599.398438 C 253.601562 604.46875 254.363281 607.742188 256.140625 614.464844 C 256.664062 616.453125 257.742188 619.824219 261.730469 632 C 263.835938 638.421875 265.070312 641.59375 267.570312 647 C 268.179688 648.320312 268.910156 650.121094 269.191406 651 C 270.265625 654.347656 274.761719 663.167969 277.445312 667.199219 C 278.984375 669.511719 281.269531 673.199219 282.53125 675.398438 C 285.703125 680.945312 287.957031 683.984375 292.601562 688.972656 C 302.359375 699.449219 313.015625 706.59375 322.722656 709.171875 C 324.550781 709.65625 326.800781 710.328125 327.722656 710.667969 C 329.757812 711.414062 331.550781 711.894531 334.199219 712.398438 C 335.300781 712.609375 338.269531 713.21875 340.800781 713.753906 C 351.707031 716.058594 354.074219 716.375 363.714844 716.796875 C 374.507812 717.273438 379.390625 717.621094 379.882812 717.945312 C 380.976562 718.667969 381.058594 719.761719 380.363281 724.335938 C 379.40625 730.59375 378.519531 734.90625 377.59375 737.800781 C 376.648438 740.753906 374.039062 756.996094 372.839844 767.398438 C 372.609375 769.378906 372.328125 771.808594 372.214844 772.800781 C 372.097656 773.789062 371.660156 777.210938 371.238281 780.398438 C 370.816406 783.589844 370.359375 787.640625 370.222656 789.398438 C 370.085938 791.160156 369.808594 793.589844 369.609375 794.800781 C 369.40625 796.011719 369.058594 798.800781 368.835938 801 C 367.503906 814.050781 367.152344 817.277344 366.796875 819.800781 C 366.578125 821.339844 366.039062 826.738281 365.597656 831.800781 L 364.398438 845.601562 C 363.046875 861.113281 362.734375 871.84375 362.390625 914.523438 C 362.199219 938.679688 361.929688 958.796875 361.792969 959.222656 C 361.550781 959.992188 363.605469 960 548.539062 960 L 735.53125 960 L 735.746094 957.300781 C 736.273438 950.621094 736.871094 933.46875 737.378906 910.601562 C 737.957031 884.328125 737.835938 825.304688 737.179688 816 C 735.992188 799.128906 735.601562 786.6875 735.796875 772 C 736.359375 729.644531 736.421875 708.121094 736.011719 696.199219 C 735.769531 689.160156 735.40625 676.019531 735.207031 667 C 735.003906 657.980469 734.742188 648.351562 734.621094 645.601562 C 734.5 642.851562 734.203125 632.949219 733.960938 623.601562 C 733.71875 614.25 733.265625 604.351562 732.949219 601.601562 C 732.632812 598.851562 732.207031 590.03125 732 582 C 731.355469 556.949219 730.746094 538.40625 730.390625 533 C 730.203125 530.140625 729.855469 524.648438 729.617188 520.800781 C 728.449219 502.042969 727.246094 489.910156 726.042969 484.800781 C 724.769531 479.398438 722.03125 471.929688 717.304688 461 C 715.878906 457.699219 713.578125 452.300781 712.191406 449 C 709.613281 442.859375 706.019531 434.503906 704.886719 432 C 703.863281 429.734375 702.839844 427.464844 701.816406 425.199219 C 700.476562 422.230469 697.914062 417.011719 696.128906 413.601562 C 694.34375 410.191406 692.605469 406.730469 692.265625 405.910156 C 691.925781 405.089844 690.582031 402.5625 689.273438 400.296875 C 687.96875 398.027344 686.3125 395.007812 685.597656 393.585938 C 684.878906 392.164062 683.800781 390.28125 683.195312 389.398438 C 682.59375 388.519531 681.671875 386.71875 681.148438 385.398438 C 680.265625 383.171875 680.03125 382.914062 677.855469 381.832031 C 676.246094 381.027344 675.015625 380.023438 673.941406 378.628906 C 668.378906 371.425781 667.472656 370.414062 665.324219 368.976562 C 664.046875 368.125 662.808594 367.207031 662.574219 366.9375 C 662.339844 366.667969 659.730469 365.015625 656.773438 363.261719 C 645.316406 356.46875 641.550781 353.511719 639.003906 349.3125 C 637.578125 346.960938 637.214844 346.609375 636.273438 346.675781 C 635.300781 346.746094 635.0625 346.480469 633.992188 344.117188 C 633.332031 342.667969 631.070312 338.816406 628.960938 335.558594 C 623.765625 327.535156 623.585938 326.609375 625.804688 319.1875 C 626.574219 316.605469 627.480469 312.628906 627.8125 310.347656 C 628.804688 303.519531 629.484375 301.074219 631.136719 298.351562 C 631.988281 296.949219 632.8125 295.394531 632.96875 294.898438 C 633.210938 294.136719 633.535156 294 635.121094 294 C 638.265625 294 644.128906 291.472656 646.046875 289.289062 C 646.988281 288.214844 647.203125 287.667969 647.003906 286.871094 C 646.777344 285.976562 647.128906 285.480469 649.714844 283.023438 C 652.953125 279.941406 659.300781 270.796875 659.785156 268.511719 C 659.96875 267.652344 660.703125 266.6875 662.003906 265.597656 C 663.988281 263.9375 664.511719 262.890625 665.023438 259.601562 C 665.175781 258.609375 665.730469 257.292969 666.25 256.667969 C 666.773438 256.046875 667.203125 255.417969 667.210938 255.269531 C 667.214844 255.121094 668.402344 253.738281 669.84375 252.199219 C 671.289062 250.660156 673.03125 248.589844 673.71875 247.601562 C 674.40625 246.609375 677.136719 243.125 679.785156 239.851562 C 685.132812 233.242188 689.464844 227.507812 691.113281 224.847656 C 691.710938 223.882812 693.121094 221.902344 694.242188 220.445312 C 696.804688 217.132812 702.371094 208.027344 704.300781 204 C 704.847656 202.859375 707.148438 196.039062 708.644531 191.117188 C 709.90625 186.980469 710.351562 179.210938 709.628906 174.039062 C 708.554688 166.332031 706.96875 158.578125 705.613281 154.398438 C 705.082031 152.738281 704.5625 151.070312 704.0625 149.398438 C 703.605469 147.859375 702.90625 146.15625 702.515625 145.617188 C 701.113281 143.683594 697.199219 135.90625 697.199219 135.050781 C 697.199219 134.164062 694.398438 126.667969 693.445312 125.003906 C 692.199219 122.828125 691.730469 120.777344 690.984375 114.199219 C 690.511719 110.058594 690.085938 108.027344 689.339844 106.398438 C 688.785156 105.191406 687.878906 102.941406 687.324219 101.398438 C 685.964844 97.636719 685.144531 96.328125 681.929688 92.800781 C 680.671875 91.421875 679.421875 90.039062 678.175781 88.652344 C 677.269531 87.636719 676.957031 87.527344 675.492188 87.722656 C 673.976562 87.925781 673.683594 87.808594 672.125 86.375 C 671.1875 85.507812 670.074219 84.800781 669.65625 84.800781 C 669.234375 84.800781 668.625 84.394531 668.300781 83.898438 C 667.96875 83.394531 666.902344 82.761719 665.875 82.460938 C 664.863281 82.164062 663.511719 81.445312 662.871094 80.863281 C 660.433594 78.648438 655.804688 75.601562 654.886719 75.601562 C 653.597656 75.601562 650.6875 73.429688 650.105469 72.039062 C 649.777344 71.25 649.078125 70.097656 648.554688 69.472656 C 648.03125 68.847656 647.601562 68.082031 647.601562 67.769531 C 647.601562 67.085938 647.222656 67.058594 645.726562 67.628906 C 644.703125 68.019531 644.5 67.9375 643.5 66.746094 C 642.894531 66.023438 642.398438 65.203125 642.398438 64.929688 C 642.398438 63.878906 641.078125 60.546875 640.195312 59.375 C 639.691406 58.703125 638.894531 57.339844 638.425781 56.34375 C 637.957031 55.34375 637.039062 54.136719 636.386719 53.652344 C 635.734375 53.171875 635.199219 52.601562 635.199219 52.390625 C 635.199219 52.179688 634.433594 51.003906 633.5 49.78125 C 632.371094 48.308594 631.421875 47.480469 630.675781 47.324219 C 629.839844 47.148438 629.390625 46.695312 628.929688 45.542969 C 628.535156 44.558594 628.054688 44 627.597656 44 C 627.203125 44 626.097656 43.550781 625.140625 43.003906 C 624.183594 42.457031 623.097656 42.007812 622.722656 42.003906 C 622.351562 42.003906 621.21875 41.28125 620.203125 40.402344 C 617.914062 38.421875 616.804688 38.117188 615.003906 38.96875 C 613.746094 39.566406 613.503906 39.570312 612.429688 39.015625 C 611.773438 38.675781 610.992188 38.398438 610.691406 38.398438 C 610.390625 38.398438 609.40625 37.769531 608.507812 37 C 607.609375 36.230469 606.542969 35.59375 606.136719 35.585938 C 605.730469 35.578125 604.949219 35.3125 604.398438 35 C 603.851562 34.6875 602.976562 34.421875 602.460938 34.414062 C 601.894531 34.40625 600.789062 33.679688 599.695312 32.601562 C 598.691406 31.609375 596.558594 30.082031 594.960938 29.203125 C 593.359375 28.324219 591.273438 27.089844 590.324219 26.453125 C 589.375 25.820312 588.199219 25.175781 587.707031 25.027344 C 587.21875 24.875 586.503906 24.222656 586.121094 23.574219 C 585.738281 22.929688 585.136719 22.308594 584.78125 22.195312 C 584.425781 22.082031 583.09375 21.359375 581.816406 20.59375 C 580.546875 19.828125 579.152344 19.199219 578.726562 19.199219 C 578.296875 19.199219 577.578125 19 577.125 18.757812 C 576.667969 18.515625 574.871094 18.261719 573.125 18.191406 C 570.652344 18.09375 569.910156 18.191406 569.773438 18.632812 M 571.628906 27.453125 C 570.710938 28.617188 570.488281 30.570312 571.300781 30.300781 C 571.78125 30.144531 573.578125 27.316406 573.59375 26.699219 C 573.609375 26.011719 572.398438 26.476562 571.628906 27.453125 M 618.171875 44.042969 C 618.019531 44.289062 618.136719 44.636719 618.425781 44.816406 C 619.0625 45.210938 620.519531 44.519531 620.1875 43.980469 C 619.863281 43.457031 618.507812 43.5 618.171875 44.042969 M 452 172.398438 C 452 172.621094 452.257812 172.800781 452.578125 172.800781 C 452.894531 172.800781 453.265625 172.621094 453.398438 172.398438 C 453.535156 172.179688 453.277344 172 452.824219 172 C 452.371094 172 452 172.179688 452 172.398438 M 453.800781 173.535156 C 452.226562 174.496094 451.765625 175.125 451.464844 176.699219 C 451.21875 178 451.421875 178.203125 452.753906 178.015625 C 453.101562 177.96875 453.21875 178.171875 453.070312 178.558594 C 452.707031 179.511719 453.304688 179.605469 454.347656 178.761719 C 455.054688 178.191406 455.242188 177.722656 455.085938 176.921875 C 454.96875 176.308594 455.140625 175.453125 455.484375 174.925781 C 456.0625 174.042969 455.964844 172.796875 455.3125 172.800781 C 455.140625 172.800781 454.460938 173.132812 453.800781 173.535156 M 459.460938 173.382812 C 459.332031 173.722656 458.957031 174 458.625 174 C 457.847656 174 457.3125 175.074219 457.28125 176.699219 C 457.261719 177.574219 457.441406 178 457.828125 178 C 458.140625 178 458.398438 177.738281 458.398438 177.417969 C 458.398438 176.105469 459.277344 174.894531 460.074219 175.105469 C 460.742188 175.277344 460.84375 175.136719 460.730469 174.1875 C 460.582031 172.921875 459.824219 172.441406 459.460938 173.382812 M 463.546875 175.542969 C 463.246094 176.023438 462.324219 176.601562 461.5 176.824219 C 460.53125 177.085938 460 177.464844 460 177.894531 C 460 178.261719 459.488281 179.109375 458.859375 179.78125 C 457.476562 181.257812 456.367188 183.984375 456.671875 185.148438 C 456.792969 185.617188 457.019531 186 457.171875 186 C 457.578125 186 458.800781 188.695312 458.800781 189.589844 C 458.800781 190.007812 458.980469 190.464844 459.203125 190.601562 C 459.433594 190.742188 459.5625 192.082031 459.503906 193.667969 L 459.398438 196.488281 L 461.386719 198.285156 C 463.765625 200.441406 464.84375 200.902344 466.691406 200.554688 C 467.984375 200.3125 468.066406 200.359375 467.816406 201.148438 C 467.628906 201.746094 467.742188 202.078125 468.191406 202.25 C 469.007812 202.566406 469.378906 202.210938 468.949219 201.527344 C 468.242188 200.398438 468.417969 199.078125 469.59375 196.609375 C 470.269531 195.195312 471.265625 193.691406 471.808594 193.261719 C 472.355469 192.835938 472.800781 192.292969 472.800781 192.058594 C 472.800781 191.824219 473.429688 191.132812 474.199219 190.515625 C 475.175781 189.738281 475.601562 189.074219 475.601562 188.328125 C 475.601562 187.605469 475.863281 187.171875 476.398438 187 C 477.363281 186.695312 477.410156 186.265625 476.578125 185.433594 C 476.011719 184.871094 476.0625 184.832031 477.097656 185.039062 C 477.886719 185.195312 478.414062 185.066406 478.785156 184.617188 C 479.535156 183.710938 478.785156 182.964844 477.707031 183.542969 C 477.003906 183.917969 475.6875 184.019531 471.699219 184.003906 C 470.984375 184 470.398438 183.800781 470.398438 183.558594 C 470.398438 183.148438 469.296875 181.585938 467.816406 179.898438 C 467.476562 179.515625 467.199219 178.683594 467.199219 178.046875 C 467.199219 177.144531 466.941406 176.789062 465.992188 176.394531 C 465.324219 176.121094 464.625 175.617188 464.4375 175.277344 C 464.144531 174.753906 464.011719 174.792969 463.546875 175.542969 M 391.601562 221.855469 C 391.601562 222.144531 392.621094 222.996094 393.761719 223.652344 C 394.433594 224.042969 394.417969 223.953125 393.632812 222.847656 C 392.851562 221.75 391.601562 221.140625 391.601562 221.855469 M 395.601562 225.503906 C 395.601562 225.722656 395.871094 226.125 396.199219 226.398438 C 396.535156 226.675781 396.800781 226.722656 396.800781 226.496094 C 396.800781 226.277344 396.53125 225.875 396.199219 225.601562 C 395.867188 225.324219 395.601562 225.277344 395.601562 225.503906 M 372.828125 230.152344 C 371.125 230.605469 370.097656 231.601562 371.335938 231.601562 C 372.550781 231.601562 374.394531 232.984375 374.398438 233.894531 C 374.398438 234.511719 374.929688 235.125 376.101562 235.871094 C 378.636719 237.480469 383.628906 240 384.285156 240 C 384.597656 240 385.152344 240.292969 385.511719 240.652344 C 386.027344 241.167969 386.203125 241.195312 386.34375 240.773438 C 386.441406 240.480469 385.863281 239.671875 385.058594 238.976562 C 383.335938 237.488281 383.261719 237.199219 384.601562 237.199219 C 385.472656 237.199219 386.097656 236.457031 385.300781 236.367188 L 384.113281 236.234375 C 383.625 236.179688 382.734375 235.644531 382.136719 235.042969 C 381.535156 234.445312 380.539062 233.65625 379.921875 233.289062 C 379.304688 232.925781 378.800781 232.476562 378.800781 232.292969 C 378.800781 231.628906 376.207031 229.601562 375.410156 229.640625 C 374.964844 229.660156 373.804688 229.890625 372.828125 230.152344 M 374.800781 233.355469 C 374.800781 233.664062 375.074219 234.019531 375.410156 234.148438 C 375.90625 234.339844 375.941406 234.238281 375.59375 233.589844 C 375.097656 232.664062 374.800781 232.574219 374.800781 233.355469 M 408.601562 237.660156 C 405.558594 239.417969 401.234375 244.996094 398.683594 250.453125 C 396.246094 255.660156 393.976562 261.6875 394.023438 262.828125 C 394.050781 263.546875 396 259.304688 396 258.523438 C 396 258.207031 396.21875 257.554688 396.484375 257.074219 C 396.964844 256.207031 396.96875 256.207031 397.183594 257.285156 L 397.398438 258.371094 L 399.027344 257.277344 C 399.921875 256.671875 401.355469 255.601562 402.21875 254.890625 C 403.078125 254.179688 403.96875 253.601562 404.195312 253.601562 C 405.027344 253.601562 405.675781 251.828125 405.890625 248.949219 C 406.015625 247.328125 406.246094 246 406.40625 246 C 406.699219 246 408.660156 243.246094 409.394531 241.800781 C 409.617188 241.359375 410.566406 240.644531 411.5 240.210938 C 412.9375 239.542969 414.027344 238.261719 413.535156 237.816406 C 413.0625 237.382812 409.285156 237.265625 408.601562 237.660156 M 369.390625 250.433594 C 369.070312 251.441406 369.5 256.5 370.058594 258.300781 C 370.402344 259.410156 370.890625 259.878906 371.308594 259.5 C 371.519531 259.308594 372.714844 260.601562 372.5625 260.855469 C 372.476562 260.996094 372.675781 261.332031 373.003906 261.605469 C 373.332031 261.875 373.601562 261.976562 373.601562 261.824219 C 373.601562 261.671875 374.132812 262.132812 374.785156 262.847656 C 376.050781 264.234375 376.125 264.183594 376.5625 261.667969 C 376.6875 260.933594 377.15625 259.824219 377.597656 259.203125 C 378.753906 257.578125 378.660156 255.847656 377.378906 255.261719 C 376.816406 255.007812 376.464844 254.617188 376.601562 254.398438 C 376.738281 254.179688 376.585938 254 376.265625 254 C 375.945312 254 375.582031 253.730469 375.457031 253.398438 C 375.328125 253.070312 374.9375 252.800781 374.589844 252.800781 C 374.238281 252.800781 374.050781 252.640625 374.171875 252.445312 C 374.460938 251.976562 372.089844 250.199219 370.726562 249.863281 C 369.863281 249.648438 369.601562 249.761719 369.390625 250.433594 M 392.832031 267.433594 C 392.851562 267.898438 392.945312 267.992188 393.074219 267.675781 C 393.1875 267.386719 393.175781 267.042969 393.042969 266.910156 C 392.910156 266.777344 392.816406 267.011719 392.832031 267.433594 M 391.441406 270.234375 C 391.019531 271.335938 391.164062 271.726562 391.800781 271.199219 C 392.453125 270.65625 392.617188 269.601562 392.042969 269.601562 C 391.847656 269.601562 391.578125 269.886719 391.441406 270.234375 M 455.800781 305.964844 C 453.601562 306.769531 450.449219 308.078125 448.800781 308.875 C 447.148438 309.671875 445.351562 310.535156 444.800781 310.789062 C 439.484375 313.253906 433.691406 317.429688 428.199219 322.75 C 426.441406 324.453125 422.765625 327.71875 420.03125 330 C 411.6875 336.976562 409.203125 339.90625 406.054688 346.472656 C 403.285156 352.246094 402.324219 354.59375 397.324219 367.800781 C 396.585938 369.753906 396.800781 372.78125 398.019531 377.601562 C 398.667969 380.171875 398.953125 382.949219 399.191406 389 C 399.488281 396.585938 400.109375 401.894531 401.4375 408.199219 C 402.773438 414.550781 403.585938 420.121094 403.96875 425.601562 C 404.195312 428.789062 404.589844 434.28125 404.847656 437.800781 C 405.105469 441.320312 405.308594 450.769531 405.300781 458.800781 C 405.289062 474.269531 405.558594 478.664062 406.609375 480.273438 C 407.503906 481.636719 409.632812 482.441406 412.382812 482.453125 C 415.699219 482.46875 417.574219 481.773438 420.15625 479.570312 C 421.496094 478.429688 423 477.523438 423.816406 477.371094 C 426.339844 476.898438 428.078125 478.898438 427.410156 481.507812 C 427.257812 482.109375 427.101562 483.140625 427.066406 483.800781 L 427 485 L 429.800781 484.976562 C 432.285156 484.957031 433.136719 484.714844 437.398438 482.832031 C 440.039062 481.664062 444 480.03125 446.199219 479.199219 C 450.230469 477.679688 452.691406 476.542969 457.757812 473.859375 C 459.273438 473.058594 460.777344 472.398438 461.097656 472.398438 C 461.421875 472.398438 462.339844 471.882812 463.140625 471.25 C 463.945312 470.617188 465.230469 469.757812 466 469.339844 C 467.339844 468.613281 468.0625 468.175781 471.199219 466.183594 C 471.96875 465.695312 473.859375 464.621094 475.398438 463.796875 C 476.941406 462.972656 479.011719 461.714844 480 461 C 480.988281 460.289062 482.429688 459.382812 483.199219 458.992188 C 483.96875 458.601562 485.257812 457.722656 486.066406 457.042969 C 486.871094 456.359375 488.222656 455.441406 489.066406 455.007812 C 494.847656 452.015625 497.855469 449.53125 500.585938 445.488281 C 503.996094 440.441406 504.660156 439.5 505.773438 438.144531 C 506.390625 437.386719 506.800781 436.390625 506.800781 435.632812 C 506.800781 434.910156 507.460938 433.207031 508.363281 431.613281 C 509.902344 428.902344 509.933594 428.765625 510.066406 424.191406 L 510.199219 419.53125 L 511.46875 418.464844 C 512.492188 417.605469 513.515625 416.75 514.542969 415.894531 L 516.351562 414.386719 L 516.148438 411.492188 C 515.875 407.59375 514.921875 400.394531 513.941406 394.824219 C 512.855469 388.644531 506.230469 368.789062 503.386719 363.171875 C 502.875 362.164062 501.5625 359.011719 500.46875 356.167969 C 499.375 353.328125 497.753906 349.558594 496.871094 347.800781 C 495.984375 346.039062 494.539062 342.710938 493.652344 340.398438 C 491.773438 335.488281 488.742188 328.1875 488.058594 326.910156 C 487.796875 326.417969 486.679688 323.554688 485.578125 320.542969 C 483.5 314.859375 481.59375 311.28125 479.273438 308.714844 C 476.171875 305.277344 473.273438 304.390625 465.398438 304.457031 C 460.011719 304.503906 459.648438 304.5625 455.800781 305.964844 M 336.128906 339.082031 C 335.027344 339.554688 335.042969 339.5625 336.800781 339.554688 C 338.308594 339.546875 340.65625 338.992188 340 338.796875 C 339.109375 338.535156 337.050781 338.6875 336.128906 339.082031 M 381.195312 356.597656 C 381.46875 356.921875 381.871094 357.082031 382.089844 356.945312 C 382.328125 356.796875 382.273438 356.566406 381.941406 356.355469 C 381.078125 355.808594 380.65625 355.945312 381.195312 356.597656 M 304.800781 424.398438 C 304.800781 424.621094 305.058594 424.800781 305.375 424.800781 C 305.695312 424.800781 306.0625 424.621094 306.199219 424.398438 C 306.335938 424.179688 306.078125 424 305.625 424 C 305.171875 424 304.800781 424.179688 304.800781 424.398438 M 298.449219 427.625 C 297.707031 428.078125 296.808594 428.335938 296.449219 428.199219 C 295.953125 428.011719 295.910156 428.0625 296.265625 428.421875 C 296.816406 428.976562 300.046875 428.0625 300.308594 427.273438 C 300.539062 426.585938 299.984375 426.691406 298.449219 427.625 M 511.398438 431.277344 C 510.070312 432.03125 508.238281 433.972656 508.554688 434.289062 C 508.71875 434.453125 509.15625 434.203125 509.527344 433.738281 C 509.898438 433.269531 510.605469 432.765625 511.101562 432.617188 C 511.59375 432.46875 512.1875 432 512.414062 431.574219 C 512.878906 430.703125 512.574219 430.613281 511.398438 431.277344 " fill-opacity="1" fill-rule="evenodd"/></svg>