<svg xmlns="http://www.w3.org/2000/svg" xmlns:xlink="http://www.w3.org/1999/xlink" width="1280" zoomAndPan="magnify" viewBox="0 0 960 959.999988" height="1280" preserveAspectRatio="xMidYMid meet" version="1.0"><path fill="#000000" d="M 434.832031 25.660156 C 423.894531 27.171875 412.167969 31.0625 410.285156 33.800781 C 409.558594 34.851562 407.941406 35.714844 406.6875 35.714844 C 405.433594 35.714844 404.40625 36.15625 404.40625 36.695312 C 404.40625 37.234375 403.21875 38.183594 401.769531 38.804688 C 397.925781 40.449219 385.296875 49.359375 379.796875 54.304688 C 374.613281 58.964844 364.363281 72.785156 360.589844 80.203125 C 354.136719 92.878906 352.347656 102.410156 354.125 114.605469 C 356.28125 129.382812 360.847656 140.878906 369.839844 154.171875 C 378.640625 167.183594 378.988281 168.859375 375.046875 179.238281 C 372.734375 185.335938 372.582031 186.648438 373.03125 196.855469 C 374.226562 223.988281 387.164062 243.007812 408.265625 248.652344 C 415.054688 250.464844 415.277344 250.859375 414.550781 259.78125 C 414.203125 264.085938 413.105469 269.824219 412.113281 272.539062 C 410.210938 277.742188 405.6875 283.957031 403.71875 284.074219 C 403.066406 284.109375 402.800781 284.796875 403.117188 285.625 C 403.445312 286.472656 402.957031 287.648438 401.980469 288.359375 C 400.867188 289.171875 400.460938 290.332031 400.808594 291.671875 C 401.488281 294.269531 400.371094 294.273438 395.035156 291.691406 L 390.8125 289.644531 L 388.257812 291.699219 C 381.679688 296.988281 357.8125 312.125 333.90625 326.164062 C 325.542969 331.074219 317.886719 337.148438 312.957031 342.785156 C 304.117188 352.894531 294.382812 375.542969 290.832031 394.277344 C 288.460938 406.777344 285.617188 429.421875 284.960938 440.984375 C 284.632812 446.777344 283.128906 458.425781 281.625 466.867188 C 274.984375 504.066406 271.941406 521.832031 269.140625 539.761719 C 267.492188 550.3125 264.683594 568.011719 262.902344 579.089844 C 261.117188 590.167969 258.773438 605.921875 257.695312 614.097656 C 256.613281 622.277344 254.875 635.007812 253.824219 642.394531 C 252.78125 649.78125 251.28125 662.515625 250.496094 670.691406 C 249.710938 678.867188 248.4375 691.167969 247.660156 698.027344 C 246.210938 710.863281 245.28125 724.761719 242.664062 772.84375 C 241.832031 788.144531 240.9375 803.421875 240.675781 806.800781 C 239.882812 817.054688 241 822.234375 245.6875 830.054688 C 250.335938 837.804688 252.542969 845.609375 253.445312 857.496094 C 254.246094 868.054688 255.421875 871.941406 259.46875 877.394531 C 261.421875 880.03125 263.601562 883.351562 264.308594 884.773438 C 266.90625 890.003906 272.410156 894.601562 278.289062 896.457031 C 282.484375 897.777344 285.792969 899.839844 290.980469 904.367188 C 297.992188 910.480469 300.371094 911.503906 302.542969 909.335938 C 304.085938 907.789062 303.992188 905.214844 302.261719 901.867188 C 300.980469 899.394531 300.988281 898.9375 302.328125 897.597656 C 303.15625 896.773438 304.78125 896.097656 305.945312 896.097656 C 308.820312 896.097656 312.324219 893.5 312.324219 891.367188 C 312.324219 888.738281 309.695312 887.074219 305.265625 886.898438 C 303.082031 886.808594 301.152344 886.417969 300.976562 886.023438 C 300.390625 884.707031 306.050781 881.722656 309.152344 881.71875 C 310.835938 881.714844 312.5625 881.171875 312.988281 880.511719 C 314.351562 878.40625 315.796875 854.667969 315.074219 846.222656 C 313.734375 830.488281 314.0625 822.070312 316.152344 818.644531 C 317.195312 816.929688 318.445312 815.527344 318.929688 815.527344 C 319.414062 815.527344 320.277344 817.578125 320.851562 820.082031 C 322.785156 828.515625 327.507812 858.144531 328.152344 865.882812 C 329.707031 884.550781 334.929688 911.910156 344.265625 950.292969 L 346.597656 959.882812 L 498.390625 960.125 L 650.183594 960.371094 L 649.535156 951.015625 C 649.175781 945.871094 648.046875 936.363281 647.023438 929.886719 C 646 923.414062 645.160156 917.347656 645.160156 916.40625 C 645.160156 915.242188 647.515625 913.488281 652.539062 910.914062 C 666.316406 903.847656 685.3125 887.460938 689.730469 878.832031 C 693.585938 871.308594 695.019531 861 694.863281 841.90625 L 694.722656 824.640625 L 699.617188 813.554688 C 705.0625 801.226562 707.800781 789.898438 709.613281 772.171875 C 711.925781 749.574219 707.492188 660.136719 702.253906 623.691406 C 701.457031 618.152344 698.875 603.691406 696.511719 591.558594 C 694.152344 579.425781 690.292969 559.136719 687.933594 546.476562 C 667.863281 438.75 668.25 440.59375 657.128906 400.203125 C 640.34375 339.253906 637 330.585938 625.808594 319.042969 C 616.84375 309.800781 609.242188 305.011719 581.820312 291.34375 C 569.441406 285.175781 558.816406 279.71875 558.207031 279.214844 C 556 277.398438 551.074219 276.550781 548.46875 277.539062 C 546.332031 278.351562 545.644531 278.183594 544.304688 276.53125 C 543.421875 275.441406 542.285156 274.550781 541.773438 274.550781 C 541.265625 274.550781 538.429688 273.480469 535.46875 272.171875 C 523.929688 267.066406 512.859375 251.765625 508.050781 234.285156 C 505.75 225.902344 505.449219 215.449219 507.429688 212.621094 C 508.65625 210.867188 511.554688 204.621094 521.050781 183.265625 C 522.847656 179.21875 525.121094 171.996094 526.101562 167.210938 C 527.230469 161.707031 529.347656 155.597656 531.859375 150.585938 C 537.074219 140.1875 539.03125 130.480469 538.46875 117.804688 C 538.089844 109.179688 537.453125 106.390625 532.601562 92.074219 C 529.613281 83.242188 526.089844 73.746094 524.769531 70.972656 C 521.480469 64.039062 513.105469 54.933594 506.914062 51.566406 C 504.082031 50.023438 499.820312 47.277344 497.445312 45.464844 C 495.074219 43.648438 491.210938 41.335938 488.863281 40.328125 C 486.511719 39.320312 482.574219 37.042969 480.105469 35.273438 C 475.480469 31.949219 464.621094 26.878906 459.558594 25.679688 C 454.058594 24.378906 444.15625 24.371094 434.832031 25.660156 M 296.457031 869.484375 C 295.863281 871.03125 297.523438 875.964844 298.632812 875.941406 C 301.007812 875.894531 301.972656 874.152344 301.09375 871.511719 C 300.101562 868.535156 297.292969 867.308594 296.457031 869.484375 M 641.492188 882.972656 C 639.175781 885.4375 638.867188 888.511719 640.472656 893.121094 C 641.800781 896.933594 643.210938 896.554688 645.496094 891.765625 C 646.996094 888.625 647.101562 887.484375 646.175781 884.402344 C 644.902344 880.148438 644.3125 879.96875 641.492188 882.972656 " fill-opacity="1" fill-rule="evenodd"/></svg>