<svg xmlns="http://www.w3.org/2000/svg" xmlns:xlink="http://www.w3.org/1999/xlink" width="500" zoomAndPan="magnify" viewBox="0 0 375 374.999991" height="500" preserveAspectRatio="xMidYMid meet" version="1.2"><g id="149a8eabc0"><path style=" stroke:none;fill-rule:nonzero;fill:#001a2c;fill-opacity:1;" d="M 187.496094 0 L 199.023438 40.222656 C 200.175781 44.238281 201.449219 48.210938 202.851562 52.148438 C 204.253906 56.082031 205.78125 59.96875 207.429688 63.808594 C 209.078125 67.644531 210.84375 71.425781 212.734375 75.152344 C 214.621094 78.878906 216.625 82.542969 218.746094 86.140625 C 220.863281 89.742188 223.09375 93.269531 225.4375 96.730469 C 227.78125 100.1875 230.230469 103.566406 232.789062 106.871094 C 235.347656 110.171875 238.003906 113.390625 240.765625 116.527344 C 243.527344 119.660156 246.386719 122.707031 249.339844 125.660156 C 252.292969 128.613281 255.335938 131.46875 258.472656 134.230469 C 261.605469 136.992188 264.824219 139.652344 268.128906 142.207031 C 271.429688 144.765625 274.8125 147.214844 278.269531 149.558594 C 281.726562 151.902344 285.257812 154.132812 288.855469 156.253906 C 292.457031 158.371094 296.121094 160.375 299.84375 162.265625 C 303.570312 164.152344 307.355469 165.921875 311.191406 167.566406 C 315.03125 169.214844 318.917969 170.742188 322.851562 172.144531 C 326.789062 173.546875 330.761719 174.824219 334.777344 175.972656 L 374.996094 187.496094 L 334.773438 199.023438 C 330.757812 200.175781 326.785156 201.449219 322.847656 202.851562 C 318.914062 204.253906 315.027344 205.78125 311.1875 207.429688 C 307.351562 209.078125 303.570312 210.84375 299.84375 212.734375 C 296.117188 214.621094 292.453125 216.625 288.855469 218.742188 C 285.253906 220.863281 281.726562 223.09375 278.269531 225.4375 C 274.808594 227.78125 271.429688 230.230469 268.125 232.789062 C 264.824219 235.347656 261.605469 238.003906 258.46875 240.765625 C 255.335938 243.527344 252.292969 246.382812 249.335938 249.335938 C 246.382812 252.292969 243.527344 255.335938 240.765625 258.46875 C 238.003906 261.605469 235.347656 264.824219 232.789062 268.125 C 230.230469 271.429688 227.78125 274.808594 225.4375 278.269531 C 223.09375 281.726562 220.863281 285.253906 218.742188 288.855469 C 216.625 292.453125 214.621094 296.117188 212.734375 299.84375 C 210.84375 303.570312 209.078125 307.351562 207.429688 311.1875 C 205.78125 315.027344 204.253906 318.914062 202.851562 322.847656 C 201.449219 326.785156 200.175781 330.757812 199.023438 334.773438 L 187.496094 374.996094 L 175.972656 334.773438 C 174.820312 330.757812 173.546875 326.785156 172.144531 322.847656 C 170.742188 318.914062 169.214844 315.027344 167.566406 311.1875 C 165.917969 307.351562 164.152344 303.570312 162.261719 299.84375 C 160.375 296.117188 158.371094 292.453125 156.253906 288.855469 C 154.132812 285.253906 151.902344 281.726562 149.558594 278.269531 C 147.214844 274.808594 144.765625 271.429688 142.207031 268.125 C 139.648438 264.824219 136.992188 261.605469 134.230469 258.46875 C 131.46875 255.335938 128.613281 252.292969 125.660156 249.335938 C 122.703125 246.382812 119.660156 243.527344 116.527344 240.765625 C 113.390625 238.003906 110.171875 235.347656 106.871094 232.789062 C 103.566406 230.230469 100.1875 227.78125 96.726562 225.4375 C 93.269531 223.09375 89.742188 220.863281 86.140625 218.742188 C 82.542969 216.625 78.878906 214.621094 75.152344 212.734375 C 71.425781 210.84375 67.644531 209.078125 63.808594 207.429688 C 59.96875 205.78125 56.082031 204.253906 52.148438 202.851562 C 48.210938 201.449219 44.238281 200.175781 40.222656 199.023438 L 0 187.496094 L 40.21875 175.972656 C 44.234375 174.824219 48.207031 173.546875 52.144531 172.144531 C 56.078125 170.742188 59.964844 169.214844 63.804688 167.566406 C 67.640625 165.921875 71.425781 164.152344 75.152344 162.265625 C 78.875 160.375 82.539062 158.371094 86.140625 156.253906 C 89.738281 154.132812 93.269531 151.902344 96.726562 149.558594 C 100.183594 147.214844 103.566406 144.765625 106.867188 142.207031 C 110.171875 139.652344 113.390625 136.992188 116.523438 134.230469 C 119.660156 131.46875 122.703125 128.613281 125.65625 125.660156 C 128.609375 122.707031 131.46875 119.660156 134.230469 116.527344 C 136.992188 113.390625 139.648438 110.171875 142.207031 106.871094 C 144.765625 103.566406 147.214844 100.1875 149.558594 96.730469 C 151.902344 93.269531 154.132812 89.742188 156.25 86.140625 C 158.371094 82.542969 160.375 78.878906 162.261719 75.152344 C 164.152344 71.425781 165.917969 67.644531 167.566406 63.808594 C 169.214844 59.96875 170.742188 56.082031 172.144531 52.148438 C 173.546875 48.210938 174.820312 44.238281 175.972656 40.222656 Z M 187.496094 0 "/></g></svg>