<svg xmlns="http://www.w3.org/2000/svg" xmlns:xlink="http://www.w3.org/1999/xlink" width="1280" zoomAndPan="magnify" viewBox="0 0 960 959.999988" height="1280" preserveAspectRatio="xMidYMid meet" version="1.0"><path fill="#000000" d="M 281.082031 3.300781 C 230.027344 5.699219 195.164062 13.882812 164.6875 25.820312 C 133.125 38.121094 106.398438 54.578125 79.8125 81.304688 C 53.175781 108.027344 36.808594 134.796875 24.644531 166.40625 C 12.84375 196.972656 4.839844 231.839844 2.578125 282.933594 C 0.316406 334.078125 -0.179688 350.402344 0.046875 480.722656 C 0.269531 611 0.859375 627.367188 3.300781 678.558594 C 5.742188 729.609375 13.882812 764.425781 25.820312 794.949219 C 38.121094 826.511719 54.578125 853.191406 81.304688 879.828125 C 108.027344 906.460938 134.796875 922.785156 166.40625 934.992188 C 196.929688 946.796875 231.839844 954.84375 282.890625 957.0625 C 334.078125 959.320312 350.402344 959.820312 480.679688 959.546875 C 611 959.320312 627.324219 958.734375 678.511719 956.292969 C 729.5625 953.851562 764.382812 945.664062 794.90625 933.773438 C 826.46875 921.429688 853.191406 905.015625 879.78125 878.289062 C 906.371094 851.566406 922.738281 824.796875 934.949219 793.1875 C 946.75 762.664062 954.800781 727.753906 957.015625 676.746094 C 959.230469 625.558594 959.773438 609.191406 959.546875 478.914062 C 959.320312 348.640625 958.6875 332.316406 956.292969 281.125 C 953.851562 230.027344 945.710938 195.210938 933.773438 164.6875 C 921.429688 133.125 905.015625 106.445312 878.289062 79.8125 C 851.566406 53.222656 824.796875 36.808594 793.1875 24.644531 C 762.664062 12.84375 727.753906 4.792969 676.703125 2.578125 C 625.515625 0.316406 609.144531 -0.179688 478.871094 0.046875 C 348.59375 0.269531 332.269531 0.859375 281.082031 3.300781 M 286.6875 870.648438 C 239.933594 868.613281 214.519531 860.835938 197.5625 854.324219 C 175.132812 845.640625 159.171875 835.242188 142.304688 818.554688 C 125.484375 801.777344 115.082031 785.816406 106.308594 763.476562 C 99.753906 746.566406 91.839844 721.199219 89.625 674.398438 C 87.226562 623.839844 86.683594 608.648438 86.457031 480.542969 C 86.234375 352.480469 86.683594 337.289062 88.902344 286.6875 C 90.890625 239.933594 98.714844 214.519531 105.226562 197.605469 C 113.90625 175.179688 124.261719 159.214844 140.992188 142.347656 C 157.769531 125.527344 173.730469 115.128906 196.113281 106.355469 C 213.027344 99.753906 238.394531 91.886719 285.152344 89.667969 C 335.75 87.273438 350.898438 86.773438 479.003906 86.503906 C 607.109375 86.234375 622.304688 86.683594 672.90625 88.945312 C 719.660156 90.980469 745.074219 98.714844 761.984375 105.269531 C 784.414062 113.953125 800.421875 124.261719 817.242188 141.039062 C 834.066406 157.8125 844.511719 173.730469 853.238281 196.160156 C 859.839844 213.027344 867.707031 238.441406 869.921875 285.152344 C 872.320312 335.75 872.863281 350.945312 873.089844 479.003906 C 873.316406 607.109375 872.863281 622.304688 870.648438 672.859375 C 868.613281 719.617188 860.835938 745.074219 854.324219 761.984375 C 845.640625 784.371094 835.285156 800.375 818.511719 817.199219 C 801.734375 833.976562 785.816406 844.421875 763.386719 853.191406 C 746.519531 859.792969 721.109375 867.664062 674.398438 869.878906 C 623.796875 872.273438 608.648438 872.816406 480.496094 873.042969 C 352.4375 873.269531 337.242188 872.816406 286.644531 870.601562 M 677.832031 223.335938 C 677.878906 255.125 703.742188 280.855469 735.488281 280.765625 C 767.277344 280.71875 793.007812 254.898438 792.960938 223.109375 C 792.914062 191.320312 767.050781 165.59375 735.261719 165.636719 C 703.472656 165.683594 677.742188 191.546875 677.789062 223.292969 M 233.421875 480.269531 C 233.691406 616.335938 344.207031 726.398438 480.226562 726.128906 C 616.289062 725.855469 726.398438 615.386719 726.128906 479.320312 C 725.855469 343.304688 615.339844 233.195312 479.277344 233.421875 C 343.257812 233.691406 233.148438 344.207031 233.421875 480.269531 M 319.835938 480.089844 C 319.699219 391.777344 391.144531 320.015625 479.457031 319.878906 C 567.769531 319.699219 639.53125 391.144531 639.714844 479.503906 C 639.894531 567.816406 568.402344 639.578125 480.089844 639.714844 C 391.777344 639.894531 320.015625 568.402344 319.878906 480.089844 " fill-opacity="1" fill-rule="nonzero"/></svg>